# xmcd CD database file
#
# Track frame offsets:
#	150
#	9915
#	21159
#	33332
#	45089
#	58168
#	70139
#	82707
#	94884
#	107145
#	119099
#	133722
#	146903
#	160465
#	172035
#	186626
#	198911
#	210474
#	225160
#	237786
#
# Disc length: 3363 seconds
#
# Revision: 0
# Processed by: cddbd v1.5.2PL0 Copyright (c) Steve Scherf et al.
# Submitted via: CDex 1.50
#
DISCID=0f0d2114
DTITLE=The Louvin Brothers - The Absolutely Essential 3 Cd Collection - CD 1
DYEAR=2017
DGENRE=Country
TTITLE0=Don't Believe You've Met My Baby
TTITLE1=When I Stop Dreaming
TTITLE2=Cash On The Barrelhead
TTITLE3=Hoping That You're Hoping
TTITLE4=Weapon Of Prayer
TTITLE5=Robe Of White
TTITLE6=The Great Atomic Power
TTITLE7=Insured Beyond The Gravew
TTITLE8=The Gospel Way
TTITLE9=Kentucky
TTITLE10=I'll Be All Smiles Tonight
TTITLE11=Let Her Go, God Bless Her
TTITLE12=What Is Home Without Love?
TTITLE13=A Tiny Broken Heart
TTITLE14=In The Pines
TTITLE15=Alabama
TTITLE16=Katie, Dear
TTITLE17=My Brother's Will
TTITLE18=Take The News To Mother
TTITLE19=Mary Of The Wild Moor
EXTD=YEAR: 2017
EXTT0=
EXTT1=
EXTT2=
EXTT3=
EXTT4=
EXTT5=
EXTT6=
EXTT7=
EXTT8=
EXTT9=
EXTT10=
EXTT11=
EXTT12=
EXTT13=
EXTT14=
EXTT15=
EXTT16=
EXTT17=
EXTT18=
EXTT19=
PLAYORDER=
